name rise30.3154peak39.0474fall46.5389.mot
datacolumns 19
datarows 17
range 0.33835000000000 0.36499800000000
endheader
time	ground_force1_vx	ground_force1_vy	ground_force1_vz	ground_force1_px	ground_force1_py	ground_force1_pz	ground_force2_vx	ground_force2_vy	ground_force2_vz	ground_force2_px	ground_force2_py	ground_force2_pz	ground_torque1_x	ground_torque1_y	ground_torque1_z	ground_torque2_x	ground_torque2_y	ground_torque2_z	
0.33835000000000	-5.64943300000000	47.61552300000000	-4.53039000000000	0.26154900000000	0.00000000000000	0.10314600000000	-40.57480600000000	759.51751700000000	-57.07872800000000	0.10518800000000	0.00000000000000	-0.09729300000000	0.00000000000000	-2.77943000000000	0.00000000000000	0.00000000000000	-18.64709800000000	0.00000000000000	
0.34000200000000	-6.03903900000000	56.46127200000000	-5.01276400000000	0.27139500000000	0.00000000000000	0.10363000000000	-40.74014000000000	755.58555799999999	-56.56644000000000	0.10463600000000	0.00000000000000	-0.09719900000000	0.00000000000000	-3.17341400000000	0.00000000000000	0.00000000000000	-18.49192400000000	0.00000000000000	
0.34166400000000	-6.27778800000000	65.58279800000000	-5.41961200000000	0.27994300000000	0.00000000000000	0.10405300000000	-40.92721700000000	751.54245700000001	-56.03403800000000	0.10409400000000	0.00000000000000	-0.09710100000000	0.00000000000000	-3.53737700000000	0.00000000000000	0.00000000000000	-18.34126500000000	0.00000000000000	
0.34335000000000	-6.34927600000000	74.87300300000000	-5.73793600000000	0.28745200000000	0.00000000000000	0.10442800000000	-41.13625000000000	747.38735899999995	-55.48155500000000	0.10356100000000	0.00000000000000	-0.09699900000000	0.00000000000000	-3.86178400000000	0.00000000000000	0.00000000000000	-18.19525600000000	0.00000000000000	
0.34500500000000	-6.24454700000000	84.24552000000000	-5.95934400000000	0.29411600000000	0.00000000000000	0.10476400000000	-41.36731400000000	743.11931600000003	-54.90903400000000	0.10303900000000	0.00000000000000	-0.09689200000000	0.00000000000000	-4.13980300000000	0.00000000000000	0.00000000000000	-18.05399400000000	0.00000000000000	
0.34667100000000	-5.96185500000000	93.63793200000001	-6.08004500000000	0.30008200000000	0.00000000000000	0.10506700000000	-41.62035300000000	738.73729100000003	-54.31653400000000	0.10252700000000	0.00000000000000	-0.09678100000000	0.00000000000000	-4.36742700000000	0.00000000000000	0.00000000000000	-17.91754800000000	0.00000000000000	
0.34834700000000	-5.50588800000000	103.01247300000000	-6.10047300000000	0.30546500000000	0.00000000000000	0.10534300000000	-41.89517000000000	734.24016600000004	-53.70412100000000	0.10202700000000	0.00000000000000	-0.09666600000000	0.00000000000000	-4.54333700000000	0.00000000000000	0.00000000000000	-17.78594800000000	0.00000000000000	
0.35000400000000	-4.88660200000000	112.35457800000000	-6.02462900000000	0.31035500000000	0.00000000000000	0.10559700000000	-42.19142700000000	729.62674600000003	-53.07188300000000	0.10153900000000	0.00000000000000	-0.09654500000000	0.00000000000000	-4.66858400000000	0.00000000000000	0.00000000000000	-17.65919400000000	0.00000000000000	
0.35166800000000	-4.11782200000000	121.66976500000000	-5.85925000000000	0.31482500000000	0.00000000000000	0.10583100000000	-42.50864700000000	724.89576299999999	-52.41992100000000	0.10106300000000	0.00000000000000	-0.09642000000000	0.00000000000000	-4.74611500000000	0.00000000000000	0.00000000000000	-17.53724800000000	0.00000000000000	
0.35334300000000	-3.21577800000000	130.97941100000000	-5.61289800000000	0.31893200000000	0.00000000000000	0.10604900000000	-42.84621000000000	720.04588899999999	-51.74835500000000	0.10060200000000	0.00000000000000	-0.09629000000000	0.00000000000000	-4.78024400000000	0.00000000000000	0.00000000000000	-17.42004000000000	0.00000000000000	
0.35500200000000	-2.19769800000000	140.31595300000001	-5.29506000000000	0.32272600000000	0.00000000000000	0.10625200000000	-43.20335200000000	715.07574299999999	-51.05732900000000	0.10015500000000	0.00000000000000	-0.09615600000000	0.00000000000000	-4.77608700000000	0.00000000000000	0.00000000000000	-17.30746500000000	0.00000000000000	
0.35667100000000	-1.08056800000000	149.71802700000001	-4.91533200000000	0.32624400000000	0.00000000000000	0.10644300000000	-43.57917200000000	709.98389999999995	-50.34700600000000	0.09972300000000	0.00000000000000	-0.09601600000000	0.00000000000000	-4.73904500000000	0.00000000000000	0.00000000000000	-17.19938200000000	0.00000000000000	
0.35834700000000	0.11987300000000	159.22591399999999	-4.48273700000000	0.32952000000000	0.00000000000000	0.10662300000000	-43.97262700000000	704.76890500000002	-49.61757800000000	0.09930700000000	0.00000000000000	-0.09587100000000	0.00000000000000	-4.67434400000000	0.00000000000000	0.00000000000000	-17.09561800000000	0.00000000000000	
0.35999900000000	1.38986600000000	168.87762499999999	-4.00520900000000	0.33258100000000	0.00000000000000	0.10679300000000	-44.38253800000000	699.42928500000005	-48.86925900000000	0.09890700000000	0.00000000000000	-0.09572100000000	0.00000000000000	-4.58667600000000	0.00000000000000	0.00000000000000	-16.99596700000000	0.00000000000000	
0.36166600000000	2.71807900000000	178.70580899999999	-3.48924600000000	0.33545000000000	0.00000000000000	0.10695500000000	-44.80759400000000	693.96356300000002	-48.10229700000000	0.09852500000000	0.00000000000000	-0.09556700000000	0.00000000000000	-4.47994400000000	0.00000000000000	0.00000000000000	-16.90019200000000	0.00000000000000	
0.36334200000000	4.09578800000000	188.73555899999999	-2.93974200000000	0.33814600000000	0.00000000000000	0.10710900000000	-45.24635100000000	688.37027599999999	-47.31696500000000	0.09816100000000	0.00000000000000	-0.09540600000000	0.00000000000000	-4.35711000000000	0.00000000000000	0.00000000000000	-16.80802200000000	0.00000000000000	
0.36499800000000	5.51682600000000	198.98314900000000	-2.35997300000000	0.34068600000000	0.00000000000000	0.10725600000000	-45.69724300000000	682.64798599999995	-46.51357200000000	0.09781700000000	0.00000000000000	-0.09524100000000	0.00000000000000	-4.22014900000000	0.00000000000000	0.00000000000000	-16.71915800000000	0.00000000000000	
